<svg width="20" height="14" viewBox="0 0 20 14" fill="none" xmlns="http://www.w3.org/2000/svg">
<path fill-rule="evenodd" clip-rule="evenodd" d="M10.4624 2.86949C13.2161 2.86961 15.8645 3.92679 17.8602 5.82253C18.0105 5.96889 18.2507 5.96704 18.3987 5.81839L19.8352 4.36981C19.9102 4.29441 19.952 4.19229 19.9513 4.08603C19.9507 3.97977 19.9077 3.87813 19.8319 3.80362C14.5938 -1.21205 6.33018 -1.21205 1.09211 3.80362C1.01623 3.87808 0.973181 3.97968 0.972482 4.08594C0.971782 4.1922 1.01349 4.29436 1.08838 4.36981L2.52535 5.81839C2.67326 5.96726 2.91366 5.96911 3.06385 5.82253C5.0598 3.92667 7.70848 2.86949 10.4624 2.86949ZM10.4624 7.58225C11.9754 7.58216 13.4343 8.14404 14.5558 9.15872C14.7075 9.30273 14.9465 9.29961 15.0943 9.15169L16.5292 7.70311C16.6048 7.62712 16.6467 7.52405 16.6456 7.41694C16.6445 7.30983 16.6005 7.20762 16.5234 7.13319C13.1083 3.95908 7.81945 3.95908 4.40429 7.13319C4.32714 7.20762 4.28313 7.30988 4.28212 7.41702C4.2811 7.52417 4.32318 7.62723 4.3989 7.70311L5.83338 9.15169C5.98125 9.29961 6.2202 9.30273 6.37188 9.15872C7.49263 8.14471 8.95045 7.58288 10.4624 7.58225ZM13.3367 10.7532C13.3389 10.8606 13.2967 10.9642 13.2199 11.0394L10.7379 13.5422C10.6651 13.6157 10.5659 13.6571 10.4624 13.6571C10.3589 13.6571 10.2597 13.6157 10.1869 13.5422L7.70446 11.0394C7.62777 10.9641 7.58558 10.8605 7.58786 10.7531C7.59013 10.6457 7.63667 10.544 7.71647 10.472C9.30162 9.13242 11.6232 9.13242 13.2083 10.472C13.2881 10.5441 13.3346 10.6458 13.3367 10.7532Z" fill="white"/>
</svg>
