<svg width="22" height="15" viewBox="0 0 22 15" fill="none" xmlns="http://www.w3.org/2000/svg">
<path fill-rule="evenodd" clip-rule="evenodd" d="M20.5459 0.866943H19.3082C18.6246 0.866943 18.0704 1.4211 18.0704 2.1047V12.8319C18.0704 13.5155 18.6246 14.0697 19.3082 14.0697H20.5459C21.2295 14.0697 21.7837 13.5155 21.7837 12.8319V2.1047C21.7837 1.4211 21.2295 0.866943 20.5459 0.866943ZM13.532 3.75509H14.7697C15.4533 3.75509 16.0075 4.30925 16.0075 4.99284V12.832C16.0075 13.5155 15.4533 14.0697 14.7697 14.0697H13.532C12.8484 14.0697 12.2942 13.5155 12.2942 12.832V4.99284C12.2942 4.30925 12.8484 3.75509 13.532 3.75509ZM8.99356 6.64308H7.7558C7.07221 6.64308 6.51805 7.19724 6.51805 7.88084V12.8319C6.51805 13.5154 7.07221 14.0696 7.7558 14.0696H8.99356C9.67715 14.0696 10.2313 13.5154 10.2313 12.8319V7.88084C10.2313 7.19724 9.67715 6.64308 8.99356 6.64308ZM3.21736 9.11859H1.97961C1.29601 9.11859 0.741852 9.67275 0.741852 10.3563V12.8319C0.741852 13.5154 1.29601 14.0696 1.97961 14.0696H3.21736C3.90095 14.0696 4.45512 13.5154 4.45512 12.8319V10.3563C4.45512 9.67275 3.90095 9.11859 3.21736 9.11859Z" fill="white"/>
</svg>
